<?xml version="1.0" standalone="no"?>
<!DOCTYPE svg PUBLIC "-//W3C//DTD SVG 20010904//EN"
 "http://www.w3.org/TR/2001/REC-SVG-20010904/DTD/svg10.dtd">
<svg version="1.0" xmlns="http://www.w3.org/2000/svg"
 width="600.000000pt" height="600.000000pt" viewBox="0 0 600.000000 600.000000"
 preserveAspectRatio="xMidYMid meet">
<metadata>
Created by potrace 1.14, written by Peter Selinger 2001-2017
</metadata>
<g transform="translate(0.000000,600.000000) scale(0.100000,-0.100000)"
fill="#000000" stroke="none">
<path d="M1826 4715 c-58 -20 -108 -65 -136 -121 l-25 -49 0 -1000 0 -1000 22
-40 c28 -52 68 -89 123 -114 65 -30 260 -30 307 -1 45 27 66 73 61 131 -6 58
-38 104 -112 159 -35 25 -61 55 -75 84 -21 43 -22 55 -19 313 3 303 6 317 84
360 l39 23 535 0 c497 0 538 -2 575 -19 45 -20 101 -73 118 -111 8 -17 13
-149 17 -395 l5 -370 27 -47 c37 -62 101 -115 162 -133 63 -19 557 -22 617 -4
50 16 105 61 132 112 l22 42 0 1010 0 1010 -28 47 c-31 53 -79 94 -134 114
-57 20 -2260 19 -2317 -1z m2055 -328 c24 -13 58 -43 74 -66 l30 -43 3 -734
c2 -716 2 -735 -17 -773 -27 -52 -76 -81 -135 -81 -51 0 -77 10 -114 44 -53
47 -52 39 -57 596 l-4 521 -27 58 c-31 70 -72 112 -139 143 l-50 23 -737 3
-738 2 0 83 c0 97 12 146 45 185 54 65 3 62 956 62 l866 0 44 -23z"/>
<path d="M3715 4303 c-57 -15 -105 -76 -105 -133 0 -81 60 -140 142 -140 38 0
54 6 82 30 63 56 70 130 18 192 -39 46 -86 63 -137 51z"/>
<path d="M2665 3149 c-74 -18 -145 -84 -174 -162 -15 -39 -13 -134 3 -179 35
-97 134 -168 234 -168 79 0 128 18 182 67 94 85 115 202 54 313 -60 110 -172
158 -299 129z"/>
<path d="M1735 2077 c-3 -6 -4 -179 -3 -382 l3 -370 70 0 70 0 3 61 c2 47 8
66 24 80 20 19 21 18 97 -64 l76 -82 88 0 c72 0 88 3 85 14 -2 8 -54 69 -117
136 l-114 121 39 42 c21 23 66 70 99 105 l59 62 -97 0 c-81 0 -100 -3 -114
-18 -10 -10 -40 -42 -66 -70 -26 -29 -50 -52 -52 -52 -3 0 -5 90 -5 199 0 110
-3 206 -6 215 -8 20 -132 23 -139 3z"/>
<path d="M4108 2060 c-27 -28 -30 -36 -25 -73 7 -48 44 -87 83 -87 93 0 132
106 62 165 -41 35 -82 33 -120 -5z"/>
<path d="M2877 1973 c-4 -3 -7 -41 -7 -84 0 -77 0 -78 -27 -81 -27 -3 -28 -5
-31 -70 l-3 -68 29 0 30 0 3 -113 c4 -104 6 -117 32 -156 39 -59 79 -81 150
-81 l57 0 0 64 c0 61 -1 64 -27 71 -55 13 -63 30 -63 126 l0 88 63 3 62 3 0
65 0 65 -62 3 -63 3 0 69 c0 98 -1 100 -74 100 -35 0 -66 -3 -69 -7z"/>
<path d="M4122 1797 c-13 -16 -26 -402 -14 -442 8 -29 10 -30 73 -30 l64 0 3
229 c2 160 -1 233 -9 242 -14 18 -103 19 -117 1z"/>
<path d="M2383 1770 c-91 -52 -138 -165 -113 -270 14 -58 79 -138 134 -164 43
-20 106 -21 153 -1 33 14 38 14 45 0 6 -11 25 -15 63 -15 48 0 55 3 60 23 3
12 4 119 3 237 l-3 215 -62 3 c-52 2 -63 0 -63 -13 0 -14 -3 -14 -30 0 -49 26
-127 19 -187 -15z m178 -149 c20 -20 29 -39 29 -61 0 -45 -47 -90 -93 -90 -44
0 -87 46 -87 92 0 41 48 88 90 88 22 0 41 -9 61 -29z"/>
<path d="M3624 1771 c-168 -97 -163 -347 9 -430 50 -24 130 -27 167 -6 32 19
40 18 40 0 0 -13 11 -15 63 -13 l62 3 3 238 2 237 -64 0 c-37 0 -66 -5 -68
-11 -2 -7 -12 -7 -31 0 -54 21 -128 13 -183 -18z m173 -156 c30 -30 35 -40 29
-68 -14 -76 -103 -103 -150 -46 -35 41 -34 83 3 120 40 40 74 38 118 -6z"/>
<path d="M3285 1492 c-39 -8 -65 -43 -65 -88 0 -35 5 -47 31 -68 35 -30 49
-32 89 -11 35 18 50 43 50 82 0 53 -53 96 -105 85z"/>
</g>
</svg>
